# xmcd
#
# Track frame offsets:
#	150
#	12384
#	25931
#	37358
#	49774
#	66717
#	80783
#	93844
#	105514
#	122809
#	137951
#	149707
#	162664
#
# Disc length: 2357 seconds
#
# Revision: 1
# Processed by: cddbd v1.5.2PL0 Copyright (c) Steve Scherf et al.
# Submitted via: audiograbber 1.83.01
#
DISCID=ca09330d
DTITLE=Diogo and Danilo - Diogo and Danilo
DYEAR=2011
DGENRE=SERTANEJO
TTITLE0=Quando Vi você
TTITLE1=Porta Retrato
TTITLE2=Futuro Namorado
TTITLE3=Amor Descontrolado
TTITLE4=Mais Um Ano
TTITLE5=Já Era
TTITLE6=Cara a Cara
TTITLE7=Metade
TTITLE8=Pardal
TTITLE9=Sonho de Menino
TTITLE10=A Morena Proibida
TTITLE11=Você e o Oceano
TTITLE12=Vou Com Deus
EXTD=
EXTT0=
EXTT1=
EXTT2=
EXTT3=
EXTT4=
EXTT5=
EXTT6=
EXTT7=
EXTT8=
EXTT9=
EXTT10=
EXTT11=
EXTT12=
PLAYORDER=
